STARTFONT 2.1
COMMENT @(#)saxlarge.bdf        1.1 94/05/09
FONT -Soliton-APL-Medium-R-Normal-saxlarge-20-200-72-72-C-120-SAX8859-1
SIZE 20 72 72
FONTBOUNDINGBOX 12 20 0 -5
STARTPROPERTIES 21
FONTNAME_REGISTRY ""
FOUNDRY "Soliton"
FAMILY_NAME "APL"
WEIGHT_NAME "Medium"
SLANT "R"
SETWIDTH_NAME "Normal"
ADD_STYLE_NAME "saxlarge"
PIXEL_SIZE 20
POINT_SIZE 200
RESOLUTION_X 72
RESOLUTION_Y 72
SPACING "C"
AVERAGE_WIDTH 120
CHARSET_REGISTRY "SAX8859"
CHARSET_ENCODING "1"
COPYRIGHT "Copyright (c) 1993, 1995 Soliton Associates Ltd."
FONT "-Soliton-APL-Medium-R-Normal-saxlarge-20-200-72-72-C-120-SAX8859-1"
WEIGHT 10
FONT_ASCENT 15
FONT_DESCENT 5
DEFAULT_CHAR 255
ENDPROPERTIES
CHARS 256
STARTCHAR <unknown>
ENCODING 0
SWIDTH 42 0
DWIDTH 12 0
BBX 0 0 12 15
BITMAP
ENDCHAR
STARTCHAR <unknown>
ENCODING 1
SWIDTH 42 0
DWIDTH 12 0
BBX 0 0 12 15
BITMAP
ENDCHAR
STARTCHAR <unknown>
ENCODING 2
SWIDTH 42 0
DWIDTH 12 0
BBX 0 0 12 15
BITMAP
ENDCHAR
STARTCHAR <unknown>
ENCODING 3
SWIDTH 42 0
DWIDTH 12 0
BBX 0 0 12 15
BITMAP
ENDCHAR
STARTCHAR <unknown>
ENCODING 4
SWIDTH 42 0
DWIDTH 12 0
BBX 0 0 12 15
BITMAP
ENDCHAR
STARTCHAR <unknown>
ENCODING 5
SWIDTH 42 0
DWIDTH 12 0
BBX 0 0 12 15
BITMAP
ENDCHAR
STARTCHAR <unknown>
ENCODING 6
SWIDTH 42 0
DWIDTH 12 0
BBX 0 0 12 15
BITMAP
ENDCHAR
STARTCHAR <unknown>
ENCODING 7
SWIDTH 42 0
DWIDTH 12 0
BBX 0 0 12 15
BITMAP
ENDCHAR
STARTCHAR <unknown>
ENCODING 8
SWIDTH 42 0
DWIDTH 12 0
BBX 0 0 12 15
BITMAP
ENDCHAR
STARTCHAR <unknown>
ENCODING 9
SWIDTH 42 0
DWIDTH 12 0
BBX 0 0 12 15
BITMAP
ENDCHAR
STARTCHAR <unknown>
ENCODING 10
SWIDTH 42 0
DWIDTH 12 0
BBX 0 0 12 15
BITMAP
ENDCHAR
STARTCHAR <unknown>
ENCODING 11
SWIDTH 42 0
DWIDTH 12 0
BBX 0 0 12 15
BITMAP
ENDCHAR
STARTCHAR <unknown>
ENCODING 12
SWIDTH 42 0
DWIDTH 12 0
BBX 0 0 12 15
BITMAP
ENDCHAR
STARTCHAR <unknown>
ENCODING 13
SWIDTH 42 0
DWIDTH 12 0
BBX 0 0 12 15
BITMAP
ENDCHAR
STARTCHAR <unknown>
ENCODING 14
SWIDTH 42 0
DWIDTH 12 0
BBX 0 0 12 15
BITMAP
ENDCHAR
STARTCHAR <unknown>
ENCODING 15
SWIDTH 42 0
DWIDTH 12 0
BBX 0 0 12 15
BITMAP
ENDCHAR
STARTCHAR <unknown>
ENCODING 16
SWIDTH 42 0
DWIDTH 12 0
BBX 7 11 5 -5
BITMAP
FE
FE
C0
C0
C0
C0
C0
C0
C0
C0
C0
ENDCHAR
STARTCHAR <unknown>
ENCODING 17
SWIDTH 42 0
DWIDTH 12 0
BBX 12 11 0 -5
BITMAP
FFF0
FFF0
0600
0600
0600
0600
0600
0600
0600
0600
0600
ENDCHAR
STARTCHAR <unknown>
ENCODING 18
SWIDTH 42 0
DWIDTH 12 0
BBX 7 11 0 -5
BITMAP
FE
FE
06
06
06
06
06
06
06
06
06
ENDCHAR
STARTCHAR <unknown>
ENCODING 19
SWIDTH 42 0
DWIDTH 12 0
BBX 7 20 5 -5
BITMAP
C0
C0
C0
C0
C0
C0
C0
C0
C0
FE
FE
C0
C0
C0
C0
C0
C0
C0
C0
C0
ENDCHAR
STARTCHAR <unknown>
ENCODING 20
SWIDTH 42 0
DWIDTH 12 0
BBX 12 20 0 -5
BITMAP
0600
0600
0600
0600
0600
0600
0600
0600
0600
FFF0
FFF0
0600
0600
0600
0600
0600
0600
0600
0600
0600
ENDCHAR
STARTCHAR <unknown>
ENCODING 21
SWIDTH 42 0
DWIDTH 12 0
BBX 7 20 0 -5
BITMAP
06
06
06
06
06
06
06
06
06
FE
FE
06
06
06
06
06
06
06
06
06
ENDCHAR
STARTCHAR <unknown>
ENCODING 22
SWIDTH 42 0
DWIDTH 12 0
BBX 7 11 5 4
BITMAP
C0
C0
C0
C0
C0
C0
C0
C0
C0
FE
FE
ENDCHAR
STARTCHAR <unknown>
ENCODING 23
SWIDTH 42 0
DWIDTH 12 0
BBX 12 11 0 4
BITMAP
0600
0600
0600
0600
0600
0600
0600
0600
0600
FFF0
FFF0
ENDCHAR
STARTCHAR <unknown>
ENCODING 24
SWIDTH 42 0
DWIDTH 12 0
BBX 7 11 0 4
BITMAP
06
06
06
06
06
06
06
06
06
FE
FE
ENDCHAR
STARTCHAR <unknown>
ENCODING 25
SWIDTH 42 0
DWIDTH 12 0
BBX 2 20 5 -5
BITMAP
C0
C0
C0
C0
C0
C0
C0
C0
C0
C0
C0
C0
C0
C0
C0
C0
C0
C0
C0
C0
ENDCHAR
STARTCHAR <unknown>
ENCODING 26
SWIDTH 42 0
DWIDTH 12 0
BBX 12 2 0 4
BITMAP
FFF0
FFF0
ENDCHAR
STARTCHAR <unknown>
ENCODING 27
SWIDTH 42 0
DWIDTH 12 0
BBX 0 0 12 15
BITMAP
ENDCHAR
STARTCHAR <unknown>
ENCODING 28
SWIDTH 42 0
DWIDTH 12 0
BBX 0 0 12 15
BITMAP
ENDCHAR
STARTCHAR <unknown>
ENCODING 29
SWIDTH 42 0
DWIDTH 12 0
BBX 0 0 12 15
BITMAP
ENDCHAR
STARTCHAR <unknown>
ENCODING 30
SWIDTH 42 0
DWIDTH 12 0
BBX 0 0 12 15
BITMAP
ENDCHAR
STARTCHAR <unknown>
ENCODING 31
SWIDTH 42 0
DWIDTH 12 0
BBX 0 0 12 15
BITMAP
ENDCHAR
STARTCHAR <unknown>
ENCODING 32
SWIDTH 42 0
DWIDTH 12 0
BBX 0 0 12 15
BITMAP
ENDCHAR
STARTCHAR <unknown>
ENCODING 33
SWIDTH 42 0
DWIDTH 12 0
BBX 2 14 4 0
BITMAP
C0
C0
C0
C0
C0
C0
C0
C0
C0
C0
C0
00
C0
C0
ENDCHAR
STARTCHAR <unknown>
ENCODING 34
SWIDTH 42 0
DWIDTH 12 0
BBX 7 4 3 10
BITMAP
C6
C6
C6
84
ENDCHAR
STARTCHAR <unknown>
ENCODING 35
SWIDTH 42 0
DWIDTH 12 0
BBX 11 13 0 0
BITMAP
18C0
18C0
18C0
3180
FFE0
3180
3180
FFE0
3180
6300
6300
6300
6300
ENDCHAR
STARTCHAR <unknown>
ENCODING 36
SWIDTH 42 0
DWIDTH 12 0
BBX 9 16 1 -1
BITMAP
1400
7E00
F700
D580
D400
D400
7400
3E00
1F00
1580
1580
D580
D580
F700
7E00
1400
ENDCHAR
STARTCHAR <unknown>
ENCODING 37
SWIDTH 42 0
DWIDTH 12 0
BBX 12 14 0 0
BITMAP
7FE0
7860
CCC0
CD80
CD00
7B00
0600
0C00
19E0
1B30
3330
6330
C1E0
C1C0
ENDCHAR
STARTCHAR <unknown>
ENCODING 38
SWIDTH 42 0
DWIDTH 12 0
BBX 11 14 0 0
BITMAP
1E00
6100
6080
6180
6300
3E00
7C00
D8E0
CC40
CEC0
C780
C3A0
67A0
3EC0
ENDCHAR
STARTCHAR <unknown>
ENCODING 39
SWIDTH 42 0
DWIDTH 12 0
BBX 2 5 5 10
BITMAP
C0
C0
C0
C0
C0
ENDCHAR
STARTCHAR <unknown>
ENCODING 40
SWIDTH 42 0
DWIDTH 12 0
BBX 6 17 5 -2
BITMAP
04
18
30
60
60
C0
C0
C0
C0
C0
C0
C0
60
60
30
18
04
ENDCHAR
STARTCHAR <unknown>
ENCODING 41
SWIDTH 42 0
DWIDTH 12 0
BBX 6 17 1 -2
BITMAP
80
60
30
18
18
0C
0C
0C
0C
0C
0C
0C
18
18
30
60
80
ENDCHAR
STARTCHAR <unknown>
ENCODING 42
SWIDTH 42 0
DWIDTH 12 0
BBX 9 11 1 3
BITMAP
0800
0800
0800
0800
FF80
7F00
1C00
1C00
3600
6300
4100
ENDCHAR
STARTCHAR <unknown>
ENCODING 43
SWIDTH 42 0
DWIDTH 12 0
BBX 10 10 1 3
BITMAP
0C00
0C00
0C00
0C00
FFC0
FFC0
0C00
0C00
0C00
0C00
ENDCHAR
STARTCHAR <unknown>
ENCODING 44
SWIDTH 42 0
DWIDTH 12 0
BBX 4 8 3 -5
BITMAP
60
F0
F0
30
30
60
C0
80
ENDCHAR
STARTCHAR <unknown>
ENCODING 45
SWIDTH 42 0
DWIDTH 12 0
BBX 10 2 1 7
BITMAP
FFC0
FFC0
ENDCHAR
STARTCHAR <unknown>
ENCODING 46
SWIDTH 42 0
DWIDTH 12 0
BBX 4 4 3 0
BITMAP
60
F0
F0
60
ENDCHAR
STARTCHAR <unknown>
ENCODING 47
SWIDTH 42 0
DWIDTH 12 0
BBX 10 15 1 0
BITMAP
00C0
0180
0180
0300
0300
0600
0600
0C00
1800
1800
3000
3000
6000
6000
C000
ENDCHAR
STARTCHAR <unknown>
ENCODING 48
SWIDTH 42 0
DWIDTH 12 0
BBX 8 15 2 0
BITMAP
1C
3E
46
43
C3
C3
C3
C3
C3
C3
C3
C2
62
7C
38
ENDCHAR
STARTCHAR <unknown>
ENCODING 49
SWIDTH 42 0
DWIDTH 12 0
BBX 8 15 2 0
BITMAP
08
18
38
78
D8
18
18
18
18
18
18
18
18
18
FF
ENDCHAR
STARTCHAR <unknown>
ENCODING 50
SWIDTH 42 0
DWIDTH 12 0
BBX 10 15 1 0
BITMAP
3E00
7F00
C380
8180
0180
0180
0180
0300
0600
0C00
1800
3000
6040
FFC0
FFC0
ENDCHAR
STARTCHAR <unknown>
ENCODING 51
SWIDTH 42 0
DWIDTH 12 0
BBX 10 15 1 0
BITMAP
1F00
3F80
41C0
80C0
00C0
01C0
0F80
1F80
01C0
00C0
00C0
80C0
C080
7F00
3E00
ENDCHAR
STARTCHAR <unknown>
ENCODING 52
SWIDTH 42 0
DWIDTH 12 0
BBX 10 15 1 0
BITMAP
0300
0700
0700
0B00
0B00
1300
1300
2300
2300
4300
7FC0
FFC0
0300
0300
0300
ENDCHAR
STARTCHAR <unknown>
ENCODING 53
SWIDTH 42 0
DWIDTH 12 0
BBX 10 15 1 0
BITMAP
1F80
1F80
2000
2000
4000
7F00
6380
01C0
00C0
00C0
00C0
80C0
C0C0
6180
3F00
ENDCHAR
STARTCHAR <unknown>
ENCODING 54
SWIDTH 42 0
DWIDTH 12 0
BBX 10 15 1 0
BITMAP
0E00
1800
3000
6000
6000
C000
CF00
DF80
E1C0
C0C0
C0C0
C0C0
E080
7F00
3E00
ENDCHAR
STARTCHAR <unknown>
ENCODING 55
SWIDTH 42 0
DWIDTH 12 0
BBX 10 15 1 0
BITMAP
3FC0
7FC0
C080
0080
0180
0100
0100
0300
0200
0200
0600
0400
0400
0C00
0800
ENDCHAR
STARTCHAR <unknown>
ENCODING 56
SWIDTH 42 0
DWIDTH 12 0
BBX 8 15 2 0
BITMAP
3C
46
C3
C3
C3
62
34
18
2C
46
C3
C3
C3
62
3C
ENDCHAR
STARTCHAR <unknown>
ENCODING 57
SWIDTH 42 0
DWIDTH 12 0
BBX 10 15 1 0
BITMAP
1F00
2380
41C0
C0C0
C0C0
C0C0
E1C0
7EC0
3CC0
00C0
0180
0180
0300
0E00
7800
ENDCHAR
STARTCHAR <unknown>
ENCODING 58
SWIDTH 42 0
DWIDTH 12 0
BBX 4 9 3 -1
BITMAP
60
F0
F0
60
00
60
F0
F0
60
ENDCHAR
STARTCHAR <unknown>
ENCODING 59
SWIDTH 42 0
DWIDTH 12 0
BBX 4 13 3 -5
BITMAP
60
F0
F0
60
00
60
F0
F0
30
30
60
C0
80
ENDCHAR
STARTCHAR <unknown>
ENCODING 60
SWIDTH 42 0
DWIDTH 12 0
BBX 10 10 1 3
BITMAP
00C0
0380
0E00
3C00
F000
F000
3C00
0E00
0380
00C0
ENDCHAR
STARTCHAR <unknown>
ENCODING 61
SWIDTH 42 0
DWIDTH 12 0
BBX 10 6 1 4
BITMAP
FFC0
FFC0
0000
0000
FFC0
FFC0
ENDCHAR
STARTCHAR <unknown>
ENCODING 62
SWIDTH 42 0
DWIDTH 12 0
BBX 10 10 1 3
BITMAP
C000
7000
3C00
0F00
03C0
03C0
0F00
3C00
7000
C000
ENDCHAR
STARTCHAR <unknown>
ENCODING 63
SWIDTH 42 0
DWIDTH 12 0
BBX 9 15 1 -1
BITMAP
1E00
7700
E380
C180
0180
0180
0180
0700
1E00
1800
1800
1800
0000
1800
1800
ENDCHAR
STARTCHAR <unknown>
ENCODING 64
SWIDTH 42 0
DWIDTH 12 0
BBX 12 13 0 0
BITMAP
1F00
30C0
6060
C790
8FD0
B190
B190
B190
B190
B310
9FB0
4060
3F80
ENDCHAR
STARTCHAR <unknown>
ENCODING 65
SWIDTH 42 0
DWIDTH 12 0
BBX 12 14 0 0
BITMAP
0600
0600
0B00
0B00
0900
1180
1180
1080
3FC0
20C0
2040
4060
4060
E0F0
ENDCHAR
STARTCHAR <unknown>
ENCODING 66
SWIDTH 42 0
DWIDTH 12 0
BBX 11 14 0 0
BITMAP
FF00
6080
60C0
60C0
60C0
6180
7F80
60C0
6060
6060
6060
6060
60C0
FF80
ENDCHAR
STARTCHAR <unknown>
ENCODING 67
SWIDTH 42 0
DWIDTH 12 0
BBX 10 14 1 0
BITMAP
1F80
20C0
4040
4000
C000
C000
C000
C000
C000
C000
4000
6040
3080
1F00
ENDCHAR
STARTCHAR <unknown>
ENCODING 68
SWIDTH 42 0
DWIDTH 12 0
BBX 11 14 0 0
BITMAP
FF00
61C0
60C0
6060
6060
6060
6060
6060
6060
6060
6060
6040
6180
FE00
ENDCHAR
STARTCHAR <unknown>
ENCODING 69
SWIDTH 42 0
DWIDTH 12 0
BBX 10 14 1 0
BITMAP
FF80
6080
6080
6000
6000
6100
7F00
6100
6000
6000
6000
6040
6040
FFC0
ENDCHAR
STARTCHAR <unknown>
ENCODING 70
SWIDTH 42 0
DWIDTH 12 0
BBX 9 14 1 0
BITMAP
FF80
6080
6080
6000
6000
6100
7F00
6100
6000
6000
6000
6000
6000
F000
ENDCHAR
STARTCHAR <unknown>
ENCODING 71
SWIDTH 42 0
DWIDTH 12 0
BBX 11 14 1 0
BITMAP
1F80
20C0
4040
4000
C000
C000
C000
C000
C3E0
C0C0
40C0
60C0
30C0
1F00
ENDCHAR
STARTCHAR <unknown>
ENCODING 72
SWIDTH 42 0
DWIDTH 12 0
BBX 12 14 0 0
BITMAP
F0F0
6060
6060
6060
6060
6060
7FE0
6060
6060
6060
6060
6060
6060
F0F0
ENDCHAR
STARTCHAR <unknown>
ENCODING 73
SWIDTH 42 0
DWIDTH 12 0
BBX 6 14 3 0
BITMAP
FC
30
30
30
30
30
30
30
30
30
30
30
30
FC
ENDCHAR
STARTCHAR <unknown>
ENCODING 74
SWIDTH 42 0
DWIDTH 12 0
BBX 7 19 2 -5
BITMAP
7E
18
18
18
18
18
18
18
18
18
18
18
18
18
18
18
10
E0
C0
ENDCHAR
STARTCHAR <unknown>
ENCODING 75
SWIDTH 42 0
DWIDTH 12 0
BBX 12 14 0 0
BITMAP
F0E0
6180
6300
6600
6C00
7800
7800
7C00
6E00
6700
6380
61C0
60E0
F070
ENDCHAR
STARTCHAR <unknown>
ENCODING 76
SWIDTH 42 0
DWIDTH 12 0
BBX 10 14 1 0
BITMAP
F000
6000
6000
6000
6000
6000
6000
6000
6000
6000
6000
6040
6040
FFC0
ENDCHAR
STARTCHAR <unknown>
ENCODING 77
SWIDTH 42 0
DWIDTH 12 0
BBX 12 14 0 0
BITMAP
E070
60E0
70E0
70E0
70E0
5960
5960
5960
4D60
4E60
4E60
4460
4460
E4F0
ENDCHAR
STARTCHAR <unknown>
ENCODING 78
SWIDTH 42 0
DWIDTH 12 0
BBX 12 14 0 0
BITMAP
C070
6020
7020
7820
5820
4C20
4620
4720
4320
41A0
40E0
40E0
4060
E030
ENDCHAR
STARTCHAR <unknown>
ENCODING 79
SWIDTH 42 0
DWIDTH 12 0
BBX 10 14 1 0
BITMAP
1E00
2380
4180
40C0
C0C0
C0C0
C0C0
C0C0
C0C0
C0C0
4080
6080
3100
1E00
ENDCHAR
STARTCHAR <unknown>
ENCODING 80
SWIDTH 42 0
DWIDTH 12 0
BBX 10 14 1 0
BITMAP
FF00
6180
60C0
60C0
60C0
6180
6F00
6000
6000
6000
6000
6000
6000
F000
ENDCHAR
STARTCHAR <unknown>
ENCODING 81
SWIDTH 42 0
DWIDTH 12 0
BBX 11 17 1 -3
BITMAP
1E00
2380
4180
40C0
C0C0
C0C0
C0C0
C0C0
C0C0
C0C0
6080
7080
3F00
1C00
3E00
4720
03C0
ENDCHAR
STARTCHAR <unknown>
ENCODING 82
SWIDTH 42 0
DWIDTH 12 0
BBX 12 14 0 0
BITMAP
FF00
6180
60C0
60C0
60C0
6080
7F00
7C00
6E00
6700
6380
61C0
60E0
F070
ENDCHAR
STARTCHAR <unknown>
ENCODING 83
SWIDTH 42 0
DWIDTH 12 0
BBX 10 14 1 0
BITMAP
3FC0
60C0
C040
C040
E000
7800
3C00
0F00
0380
01C0
80C0
80C0
C180
FF00
ENDCHAR
STARTCHAR <unknown>
ENCODING 84
SWIDTH 42 0
DWIDTH 12 0
BBX 10 14 1 0
BITMAP
FFC0
8C40
0C00
0C00
0C00
0C00
0C00
0C00
0C00
0C00
0C00
0C00
0C00
3F00
ENDCHAR
STARTCHAR <unknown>
ENCODING 85
SWIDTH 42 0
DWIDTH 12 0
BBX 12 14 0 0
BITMAP
F070
6020
6020
6020
6020
6020
6020
6020
6020
6020
6020
7040
3FC0
1F80
ENDCHAR
STARTCHAR <unknown>
ENCODING 86
SWIDTH 42 0
DWIDTH 12 0
BBX 11 14 0 0
BITMAP
E0E0
6040
3080
3080
3080
1900
1900
1900
0C00
0E00
0E00
0400
0400
0400
ENDCHAR
STARTCHAR <unknown>
ENCODING 87
SWIDTH 42 0
DWIDTH 12 0
BBX 12 14 0 0
BITMAP
FEF0
6620
6620
6620
7620
7740
3340
3740
3BC0
3B80
1980
1980
1980
1980
ENDCHAR
STARTCHAR <unknown>
ENCODING 88
SWIDTH 42 0
DWIDTH 12 0
BBX 12 14 0 0
BITMAP
F070
6020
3040
3880
1880
0D00
0600
0600
0B00
1180
11C0
20C0
4060
E0F0
ENDCHAR
STARTCHAR <unknown>
ENCODING 89
SWIDTH 42 0
DWIDTH 12 0
BBX 12 14 0 0
BITMAP
F070
6020
3040
1880
1880
0D00
0600
0600
0600
0600
0600
0600
0600
0F00
ENDCHAR
STARTCHAR <unknown>
ENCODING 90
SWIDTH 42 0
DWIDTH 12 0
BBX 9 14 2 0
BITMAP
FF80
8300
0300
0600
0600
0C00
0C00
1800
1800
3000
3000
6000
6080
FF80
ENDCHAR
STARTCHAR <unknown>
ENCODING 91
SWIDTH 42 0
DWIDTH 12 0
BBX 5 15 5 0
BITMAP
F8
C0
C0
C0
C0
C0
C0
C0
C0
C0
C0
C0
C0
C0
F8
ENDCHAR
STARTCHAR <unknown>
ENCODING 92
SWIDTH 42 0
DWIDTH 12 0
BBX 9 15 1 0
BITMAP
C000
C000
6000
6000
3000
3000
1800
1800
0C00
0600
0600
0300
0300
0180
0180
ENDCHAR
STARTCHAR <unknown>
ENCODING 93
SWIDTH 42 0
DWIDTH 12 0
BBX 5 15 1 0
BITMAP
F8
18
18
18
18
18
18
18
18
18
18
18
18
18
F8
ENDCHAR
STARTCHAR <unknown>
ENCODING 94
SWIDTH 42 0
DWIDTH 12 0
BBX 11 6 0 4
BITMAP
0400
0E00
1B00
3180
60C0
C060
ENDCHAR
STARTCHAR <unknown>
ENCODING 95
SWIDTH 42 0
DWIDTH 12 0
BBX 12 2 0 -3
BITMAP
FFF0
FFF0
ENDCHAR
STARTCHAR <unknown>
ENCODING 96
SWIDTH 42 0
DWIDTH 12 0
BBX 5 6 3 8
BITMAP
E0
E0
F0
70
38
08
ENDCHAR
STARTCHAR <unknown>
ENCODING 97
SWIDTH 42 0
DWIDTH 12 0
BBX 9 10 2 0
BITMAP
3E00
6300
4300
0F00
7300
C300
C300
C300
E700
7B80
ENDCHAR
STARTCHAR <unknown>
ENCODING 98
SWIDTH 42 0
DWIDTH 12 0
BBX 11 15 0 0
BITMAP
2000
6000
E000
6000
6000
6780
6FC0
70E0
6060
6060
6060
6060
7060
78C0
4F80
ENDCHAR
STARTCHAR <unknown>
ENCODING 99
SWIDTH 42 0
DWIDTH 12 0
BBX 9 10 1 0
BITMAP
3F00
6380
4180
C000
C000
C000
C000
E080
6180
3F00
ENDCHAR
STARTCHAR <unknown>
ENCODING 100
SWIDTH 42 0
DWIDTH 12 0
BBX 11 15 1 0
BITMAP
00C0
01C0
00C0
00C0
00C0
1EC0
63C0
41C0
C0C0
C0C0
C0C0
C0C0
E1C0
72C0
3CE0
ENDCHAR
STARTCHAR <unknown>
ENCODING 101
SWIDTH 42 0
DWIDTH 12 0
BBX 10 10 1 0
BITMAP
1E00
6180
C0C0
C0C0
FFC0
C000
C000
6000
30C0
1F00
ENDCHAR
STARTCHAR <unknown>
ENCODING 102
SWIDTH 42 0
DWIDTH 12 0
BBX 7 15 3 0
BITMAP
1C
26
26
60
60
60
60
FC
60
60
60
60
60
60
F0
ENDCHAR
STARTCHAR <unknown>
ENCODING 103
SWIDTH 42 0
DWIDTH 12 0
BBX 10 15 1 -5
BITMAP
3E40
63C0
C180
C180
C180
6300
7E00
C000
FF80
7FC0
40C0
8040
8040
FF80
7F00
ENDCHAR
STARTCHAR <unknown>
ENCODING 104
SWIDTH 42 0
DWIDTH 12 0
BBX 10 15 1 0
BITMAP
2000
6000
E000
6000
6000
6F00
7380
6180
6180
6180
6180
6180
6180
6180
F3C0
ENDCHAR
STARTCHAR <unknown>
ENCODING 105
SWIDTH 42 0
DWIDTH 12 0
BBX 6 14 3 0
BITMAP
30
30
00
00
F0
30
30
30
30
30
30
30
30
FC
ENDCHAR
STARTCHAR <unknown>
ENCODING 106
SWIDTH 42 0
DWIDTH 12 0
BBX 8 19 2 -5
BITMAP
03
03
00
00
0F
03
03
03
03
03
03
03
03
03
83
C3
E2
7C
38
ENDCHAR
STARTCHAR <unknown>
ENCODING 107
SWIDTH 42 0
DWIDTH 12 0
BBX 11 15 0 0
BITMAP
6000
E000
6000
6000
6000
61C0
6300
6600
7C00
7800
7C00
6E00
6700
6380
F1E0
ENDCHAR
STARTCHAR <unknown>
ENCODING 108
SWIDTH 42 0
DWIDTH 12 0
BBX 6 15 3 0
BITMAP
F0
30
30
30
30
30
30
30
30
30
30
30
30
30
FC
ENDCHAR
STARTCHAR <unknown>
ENCODING 109
SWIDTH 42 0
DWIDTH 12 0
BBX 12 10 0 0
BITMAP
DDC0
6EE0
6660
6660
6660
6660
6660
6660
6660
EF70
ENDCHAR
STARTCHAR <unknown>
ENCODING 110
SWIDTH 42 0
DWIDTH 12 0
BBX 10 10 1 0
BITMAP
4F00
F380
6180
6180
6180
6180
6180
6180
6180
F3C0
ENDCHAR
STARTCHAR <unknown>
ENCODING 111
SWIDTH 42 0
DWIDTH 12 0
BBX 10 10 1 0
BITMAP
1F00
2380
41C0
C0C0
C0C0
C0C0
C0C0
E080
7100
3E00
ENDCHAR
STARTCHAR <unknown>
ENCODING 112
SWIDTH 42 0
DWIDTH 12 0
BBX 11 15 0 -5
BITMAP
EF80
71C0
60E0
6060
6060
6060
6060
6040
7080
7F00
6000
6000
6000
6000
F000
ENDCHAR
STARTCHAR <unknown>
ENCODING 113
SWIDTH 42 0
DWIDTH 12 0
BBX 11 15 1 -5
BITMAP
1E40
23C0
41C0
C0C0
C0C0
C0C0
C0C0
E0C0
71C0
3FC0
00C0
00C0
00C0
00C0
01E0
ENDCHAR
STARTCHAR <unknown>
ENCODING 114
SWIDTH 42 0
DWIDTH 12 0
BBX 9 10 1 0
BITMAP
E700
6980
7180
6000
6000
6000
6000
6000
6000
F000
ENDCHAR
STARTCHAR <unknown>
ENCODING 115
SWIDTH 42 0
DWIDTH 12 0
BBX 8 10 2 0
BITMAP
7F
C3
C1
E0
78
1E
07
83
C3
FE
ENDCHAR
STARTCHAR <unknown>
ENCODING 116
SWIDTH 42 0
DWIDTH 12 0
BBX 10 13 1 0
BITMAP
0800
0800
1800
FF80
1800
1800
1800
1800
1800
1800
1840
1C80
0F00
ENDCHAR
STARTCHAR <unknown>
ENCODING 117
SWIDTH 42 0
DWIDTH 12 0
BBX 10 10 1 0
BITMAP
F3C0
6180
6180
6180
6180
6180
6180
6180
7380
3CC0
ENDCHAR
STARTCHAR <unknown>
ENCODING 118
SWIDTH 42 0
DWIDTH 12 0
BBX 12 10 0 0
BITMAP
F070
6020
3040
3040
1880
1880
0D00
0D00
0600
0600
ENDCHAR
STARTCHAR <unknown>
ENCODING 119
SWIDTH 42 0
DWIDTH 12 0
BBX 12 10 0 0
BITMAP
FF70
6620
6620
6620
3740
3B40
3B40
1980
1980
1980
ENDCHAR
STARTCHAR <unknown>
ENCODING 120
SWIDTH 42 0
DWIDTH 12 0
BBX 12 10 0 0
BITMAP
F8F0
7040
3880
1D00
0E00
0700
0B80
11C0
20E0
F1F0
ENDCHAR
STARTCHAR <unknown>
ENCODING 121
SWIDTH 42 0
DWIDTH 12 0
BBX 12 15 0 -5
BITMAP
F0F0
6020
3040
3040
1880
1880
0D00
0D00
0600
0600
0400
0C00
0800
7800
7000
ENDCHAR
STARTCHAR <unknown>
ENCODING 122
SWIDTH 42 0
DWIDTH 12 0
BBX 10 10 1 0
BITMAP
FFC0
C1C0
8380
0700
0E00
1C00
3800
7040
E0C0
FFC0
ENDCHAR
STARTCHAR <unknown>
ENCODING 123
SWIDTH 42 0
DWIDTH 12 0
BBX 5 15 5 0
BITMAP
38
60
60
30
30
30
60
E0
60
30
30
30
60
60
38
ENDCHAR
STARTCHAR <unknown>
ENCODING 124
SWIDTH 42 0
DWIDTH 12 0
BBX 2 14 5 0
BITMAP
C0
C0
C0
C0
C0
C0
00
00
C0
C0
C0
C0
C0
C0
ENDCHAR
STARTCHAR <unknown>
ENCODING 125
SWIDTH 42 0
DWIDTH 12 0
BBX 5 15 2 0
BITMAP
E0
30
30
60
60
60
30
38
30
60
60
60
30
30
E0
ENDCHAR
STARTCHAR <unknown>
ENCODING 126
SWIDTH 42 0
DWIDTH 12 0
BBX 10 5 1 3
BITMAP
3840
7CC0
6D80
CF80
8700
ENDCHAR
STARTCHAR <unknown>
ENCODING 127
SWIDTH 42 0
DWIDTH 12 0
BBX 0 0 12 15
BITMAP
ENDCHAR
STARTCHAR <unknown>
ENCODING 128
SWIDTH 42 0
DWIDTH 12 0
BBX 0 0 12 15
BITMAP
ENDCHAR
STARTCHAR <unknown>
ENCODING 129
SWIDTH 42 0
DWIDTH 12 0
BBX 0 0 12 15
BITMAP
ENDCHAR
STARTCHAR <unknown>
ENCODING 130
SWIDTH 42 0
DWIDTH 12 0
BBX 0 0 12 15
BITMAP
ENDCHAR
STARTCHAR <unknown>
ENCODING 131
SWIDTH 42 0
DWIDTH 12 0
BBX 0 0 12 15
BITMAP
ENDCHAR
STARTCHAR <unknown>
ENCODING 132
SWIDTH 42 0
DWIDTH 12 0
BBX 0 0 12 15
BITMAP
ENDCHAR
STARTCHAR <unknown>
ENCODING 133
SWIDTH 42 0
DWIDTH 12 0
BBX 0 0 12 15
BITMAP
ENDCHAR
STARTCHAR <unknown>
ENCODING 134
SWIDTH 42 0
DWIDTH 12 0
BBX 0 0 12 15
BITMAP
ENDCHAR
STARTCHAR <unknown>
ENCODING 135
SWIDTH 42 0
DWIDTH 12 0
BBX 0 0 12 15
BITMAP
ENDCHAR
STARTCHAR <unknown>
ENCODING 136
SWIDTH 42 0
DWIDTH 12 0
BBX 0 0 12 15
BITMAP
ENDCHAR
STARTCHAR <unknown>
ENCODING 137
SWIDTH 42 0
DWIDTH 12 0
BBX 0 0 12 15
BITMAP
ENDCHAR
STARTCHAR <unknown>
ENCODING 138
SWIDTH 42 0
DWIDTH 12 0
BBX 0 0 12 15
BITMAP
ENDCHAR
STARTCHAR <unknown>
ENCODING 139
SWIDTH 42 0
DWIDTH 12 0
BBX 0 0 12 15
BITMAP
ENDCHAR
STARTCHAR <unknown>
ENCODING 140
SWIDTH 42 0
DWIDTH 12 0
BBX 0 0 12 15
BITMAP
ENDCHAR
STARTCHAR <unknown>
ENCODING 141
SWIDTH 42 0
DWIDTH 12 0
BBX 0 0 12 15
BITMAP
ENDCHAR
STARTCHAR <unknown>
ENCODING 142
SWIDTH 42 0
DWIDTH 12 0
BBX 0 0 12 15
BITMAP
ENDCHAR
STARTCHAR <unknown>
ENCODING 143
SWIDTH 42 0
DWIDTH 12 0
BBX 0 0 12 15
BITMAP
ENDCHAR
STARTCHAR <unknown>
ENCODING 144
SWIDTH 42 0
DWIDTH 12 0
BBX 7 11 5 -5
BITMAP
FE
FE
C0
C0
C0
C0
C0
C0
C0
C0
C0
ENDCHAR
STARTCHAR <unknown>
ENCODING 145
SWIDTH 42 0
DWIDTH 12 0
BBX 12 11 0 -5
BITMAP
FFF0
FFF0
0600
0600
0600
0600
0600
0600
0600
0600
0600
ENDCHAR
STARTCHAR <unknown>
ENCODING 146
SWIDTH 42 0
DWIDTH 12 0
BBX 7 11 0 -5
BITMAP
FE
FE
06
06
06
06
06
06
06
06
06
ENDCHAR
STARTCHAR <unknown>
ENCODING 147
SWIDTH 42 0
DWIDTH 12 0
BBX 7 20 5 -5
BITMAP
C0
C0
C0
C0
C0
C0
C0
C0
C0
FE
FE
C0
C0
C0
C0
C0
C0
C0
C0
C0
ENDCHAR
STARTCHAR <unknown>
ENCODING 148
SWIDTH 42 0
DWIDTH 12 0
BBX 12 20 0 -5
BITMAP
0600
0600
0600
0600
0600
0600
0600
0600
0600
FFF0
FFF0
0600
0600
0600
0600
0600
0600
0600
0600
0600
ENDCHAR
STARTCHAR <unknown>
ENCODING 149
SWIDTH 42 0
DWIDTH 12 0
BBX 7 20 0 -5
BITMAP
06
06
06
06
06
06
06
06
06
FE
FE
06
06
06
06
06
06
06
06
06
ENDCHAR
STARTCHAR <unknown>
ENCODING 150
SWIDTH 42 0
DWIDTH 12 0
BBX 7 11 5 4
BITMAP
C0
C0
C0
C0
C0
C0
C0
C0
C0
FE
FE
ENDCHAR
STARTCHAR <unknown>
ENCODING 151
SWIDTH 42 0
DWIDTH 12 0
BBX 12 11 0 4
BITMAP
0600
0600
0600
0600
0600
0600
0600
0600
0600
FFF0
FFF0
ENDCHAR
STARTCHAR <unknown>
ENCODING 152
SWIDTH 42 0
DWIDTH 12 0
BBX 7 11 0 4
BITMAP
06
06
06
06
06
06
06
06
06
FE
FE
ENDCHAR
STARTCHAR <unknown>
ENCODING 153
SWIDTH 42 0
DWIDTH 12 0
BBX 2 20 5 -5
BITMAP
C0
C0
C0
C0
C0
C0
C0
C0
C0
C0
C0
C0
C0
C0
C0
C0
C0
C0
C0
C0
ENDCHAR
STARTCHAR <unknown>
ENCODING 154
SWIDTH 42 0
DWIDTH 12 0
BBX 12 2 0 4
BITMAP
FFF0
FFF0
ENDCHAR
STARTCHAR <unknown>
ENCODING 155
SWIDTH 42 0
DWIDTH 12 0
BBX 0 0 12 15
BITMAP
ENDCHAR
STARTCHAR <unknown>
ENCODING 156
SWIDTH 42 0
DWIDTH 12 0
BBX 0 0 12 15
BITMAP
ENDCHAR
STARTCHAR <unknown>
ENCODING 157
SWIDTH 42 0
DWIDTH 12 0
BBX 0 0 12 15
BITMAP
ENDCHAR
STARTCHAR <unknown>
ENCODING 158
SWIDTH 42 0
DWIDTH 12 0
BBX 0 0 12 15
BITMAP
ENDCHAR
STARTCHAR <unknown>
ENCODING 159
SWIDTH 42 0
DWIDTH 12 0
BBX 0 0 12 15
BITMAP
ENDCHAR
STARTCHAR <unknown>
ENCODING 160
SWIDTH 42 0
DWIDTH 12 0
BBX 10 19 1 -5
BITMAP
3F00
3300
3300
3300
3300
3300
3300
3300
3300
3300
3300
3300
3300
3F00
4080
A180
A080
A080
41C0
ENDCHAR
STARTCHAR <unknown>
ENCODING 161
SWIDTH 42 0
DWIDTH 12 0
BBX 9 3 2 11
BITMAP
E380
E380
E380
ENDCHAR
STARTCHAR <unknown>
ENCODING 162
SWIDTH 42 0
DWIDTH 12 0
BBX 8 2 2 12
BITMAP
FF
FF
ENDCHAR
STARTCHAR <unknown>
ENCODING 163
SWIDTH 42 0
DWIDTH 12 0
BBX 10 19 1 -5
BITMAP
3F00
3300
3300
3300
3300
3300
3300
3300
3300
3300
3300
3300
3300
3F00
4180
A240
A040
A080
43C0
ENDCHAR
STARTCHAR <unknown>
ENCODING 164
SWIDTH 42 0
DWIDTH 12 0
BBX 10 13 1 0
BITMAP
00C0
0380
0E00
3C00
F000
F000
3C00
0E00
0380
00C0
0000
FFC0
FFC0
ENDCHAR
STARTCHAR <unknown>
ENCODING 165
SWIDTH 42 0
DWIDTH 12 0
BBX 10 19 1 -5
BITMAP
3F00
3300
3300
3300
3300
3300
3300
3300
3300
3300
3300
3300
3300
3F00
4180
A240
A080
A240
4180
ENDCHAR
STARTCHAR <unknown>
ENCODING 166
SWIDTH 42 0
DWIDTH 12 0
BBX 10 13 1 0
BITMAP
C000
7000
3C00
0F00
03C0
03C0
0F00
3C00
7000
C000
0000
FFC0
FFC0
ENDCHAR
STARTCHAR <unknown>
ENCODING 167
SWIDTH 42 0
DWIDTH 12 0
BBX 10 19 1 -5
BITMAP
3F00
3300
3300
3300
3300
3300
3300
3300
3300
3300
3300
3300
3300
3F00
4200
A280
A3C0
A080
4080
ENDCHAR
STARTCHAR <unknown>
ENCODING 168
SWIDTH 42 0
DWIDTH 12 0
BBX 10 14 1 0
BITMAP
00C0
00C0
0180
0180
FFC0
FFC0
0C00
0C00
FFC0
FFC0
6000
6000
C000
C000
ENDCHAR
STARTCHAR <unknown>
ENCODING 169
SWIDTH 42 0
DWIDTH 12 0
BBX 11 6 0 4
BITMAP
C060
60C0
3180
1B00
0E00
0400
ENDCHAR
STARTCHAR <unknown>
ENCODING 170
SWIDTH 42 0
DWIDTH 12 0
BBX 10 19 1 -5
BITMAP
3F00
3300
3300
3300
3300
3300
3300
3300
3300
3300
3300
3300
3300
3F00
43C0
A200
A380
A040
4380
ENDCHAR
STARTCHAR <unknown>
ENCODING 171
SWIDTH 42 0
DWIDTH 12 0
BBX 10 9 1 3
BITMAP
C0C0
6180
3300
1E00
0C00
1E00
3300
6180
C0C0
ENDCHAR
STARTCHAR <unknown>
ENCODING 172
SWIDTH 42 0
DWIDTH 12 0
BBX 8 13 1 -5
BITMAP
FF
FF
00
00
00
18
3C
3C
0C
0C
18
30
20
ENDCHAR
STARTCHAR <unknown>
ENCODING 173
SWIDTH 42 0
DWIDTH 12 0
BBX 10 14 1 0
BITMAP
FFC0
C0C0
CCC0
CCC0
CCC0
C0C0
FFC0
FFC0
C0C0
CCC0
CCC0
CCC0
C0C0
FFC0
ENDCHAR
STARTCHAR <unknown>
ENCODING 174
SWIDTH 42 0
DWIDTH 12 0
BBX 9 11 2 3
BITMAP
E380
E380
E380
0000
0000
0000
0000
0000
1C00
1C00
1C00
ENDCHAR
STARTCHAR <unknown>
ENCODING 175
SWIDTH 42 0
DWIDTH 12 0
BBX 10 15 1 0
BITMAP
00C0
0180
0180
0300
0300
0600
0600
FF80
FF80
1800
3000
3000
6000
6000
C000
ENDCHAR
STARTCHAR <unknown>
ENCODING 176
SWIDTH 42 0
DWIDTH 12 0
BBX 11 11 0 4
BITMAP
3820
7C60
C7E0
8380
0000
0400
0E00
1B00
3180
60C0
C060
ENDCHAR
STARTCHAR <unknown>
ENCODING 177
SWIDTH 42 0
DWIDTH 12 0
BBX 2 15 5 -1
BITMAP
C0
C0
00
00
C0
C0
C0
C0
C0
C0
C0
C0
C0
C0
C0
ENDCHAR
STARTCHAR <unknown>
ENCODING 178
SWIDTH 42 0
DWIDTH 12 0
BBX 10 19 1 -5
BITMAP
3F00
3300
3300
3300
3300
3300
3300
3300
3300
3300
3300
3300
3300
3F00
41C0
A200
A380
A240
4180
ENDCHAR
STARTCHAR <unknown>
ENCODING 179
SWIDTH 42 0
DWIDTH 12 0
BBX 10 14 0 0
BITMAP
0F00
1980
1800
1800
1800
1800
3E00
3E00
1800
1800
1800
30C0
61C0
FF80
ENDCHAR
STARTCHAR <unknown>
ENCODING 180
SWIDTH 42 0
DWIDTH 12 0
BBX 12 14 0 0
BITMAP
F070
6020
3040
1880
1880
0D00
0600
7FE0
0600
7FE0
0600
0600
0600
0F00
ENDCHAR
STARTCHAR <unknown>
ENCODING 181
SWIDTH 42 0
DWIDTH 12 0
BBX 11 19 1 -5
BITMAP
3F00
3300
3300
3300
3300
3300
3300
3300
3300
3300
3300
3300
3300
3F00
41E0
A040
A1E0
A080
4100
ENDCHAR
STARTCHAR <unknown>
ENCODING 182
SWIDTH 42 0
DWIDTH 12 0
BBX 10 5 1 4
BITMAP
FFC0
FFC0
00C0
00C0
00C0
ENDCHAR
STARTCHAR <unknown>
ENCODING 183
SWIDTH 42 0
DWIDTH 12 0
BBX 10 19 1 -5
BITMAP
3F00
3300
3300
3300
3300
3300
3300
3300
3300
3300
3300
3300
3300
3F00
4180
A240
A180
A240
4180
ENDCHAR
STARTCHAR <unknown>
ENCODING 184
SWIDTH 42 0
DWIDTH 12 0
BBX 10 19 1 -5
BITMAP
3F00
3300
3300
3300
3300
3300
3300
3300
3300
3300
3300
3300
3300
3F00
4080
A140
A140
A080
4100
ENDCHAR
STARTCHAR <unknown>
ENCODING 185
SWIDTH 42 0
DWIDTH 12 0
BBX 11 11 0 4
BITMAP
3820
7C60
C7E0
8380
0000
C060
60C0
3180
1B00
0E00
0400
ENDCHAR
STARTCHAR <unknown>
ENCODING 186
SWIDTH 42 0
DWIDTH 12 0
BBX 10 19 1 -5
BITMAP
3F00
3300
3300
3300
3300
3300
3300
3300
3300
3300
3300
3300
3300
3F00
4080
C140
4140
4140
E080
ENDCHAR
STARTCHAR <unknown>
ENCODING 187
SWIDTH 42 0
DWIDTH 12 0
BBX 10 14 1 0
BITMAP
FFC0
C0C0
C0C0
C0C0
CCC0
D2C0
F3C0
F3C0
D2C0
CCC0
C0C0
C0C0
C0C0
FFC0
ENDCHAR
STARTCHAR <unknown>
ENCODING 188
SWIDTH 42 0
DWIDTH 12 0
BBX 10 14 1 0
BITMAP
FFC0
C0C0
C0C0
E0C0
D0C0
D0C0
C8C0
C4C0
C2C0
C2C0
C1C0
C0C0
C0C0
FFC0
ENDCHAR
STARTCHAR <unknown>
ENCODING 189
SWIDTH 42 0
DWIDTH 12 0
BBX 10 10 1 3
BITMAP
FFC0
FFC0
0000
0000
FFC0
FFC0
0000
0000
FFC0
FFC0
ENDCHAR
STARTCHAR <unknown>
ENCODING 190
SWIDTH 42 0
DWIDTH 12 0
BBX 6 14 3 0
BITMAP
FC
CC
CC
CC
CC
CC
CC
CC
CC
CC
CC
CC
CC
FC
ENDCHAR
STARTCHAR <unknown>
ENCODING 191
SWIDTH 42 0
DWIDTH 12 0
BBX 9 15 1 -1
BITMAP
0C00
0C00
0000
0C00
0C00
0C00
1C00
7000
E000
C000
C000
E180
E180
7700
1E00
ENDCHAR
STARTCHAR <unknown>
ENCODING 192
SWIDTH 42 0
DWIDTH 12 0
BBX 10 19 1 -5
BITMAP
3F00
3300
3300
3300
3300
3300
3300
3300
3300
3300
3300
3300
3300
3F00
4080
C180
4080
4080
E1C0
ENDCHAR
STARTCHAR <unknown>
ENCODING 193
SWIDTH 42 0
DWIDTH 12 0
BBX 10 9 1 0
BITMAP
3E40
6380
C300
C300
C300
C300
C300
E780
7DC0
ENDCHAR
STARTCHAR <unknown>
ENCODING 194
SWIDTH 42 0
DWIDTH 12 0
BBX 9 10 1 0
BITMAP
0800
0800
0800
0800
0800
0800
0800
0800
FF80
FF80
ENDCHAR
STARTCHAR <unknown>
ENCODING 195
SWIDTH 42 0
DWIDTH 12 0
BBX 8 10 2 2
BITMAP
3C
66
C3
C3
C3
C3
C3
C3
C3
C3
ENDCHAR
STARTCHAR <unknown>
ENCODING 196
SWIDTH 42 0
DWIDTH 12 0
BBX 5 15 4 0
BITMAP
C0
C0
C0
C0
C0
C0
C0
C0
C0
C0
C0
C0
C0
F8
F8
ENDCHAR
STARTCHAR <unknown>
ENCODING 197
SWIDTH 42 0
DWIDTH 12 0
BBX 8 9 2 3
BITMAP
1F
60
40
C0
FC
C0
C0
40
3E
ENDCHAR
STARTCHAR <unknown>
ENCODING 198
SWIDTH 42 0
DWIDTH 12 0
BBX 10 19 1 -5
BITMAP
3F00
3300
3300
3300
3300
3300
3300
3300
3300
3300
3300
3300
3300
3F00
4180
C240
4040
4080
E3C0
ENDCHAR
STARTCHAR <unknown>
ENCODING 199
SWIDTH 42 0
DWIDTH 12 0
BBX 10 11 1 0
BITMAP
FFC0
C040
C040
6080
6080
3100
3100
1A00
1A00
0C00
0C00
ENDCHAR
STARTCHAR <unknown>
ENCODING 200
SWIDTH 42 0
DWIDTH 12 0
BBX 10 11 1 0
BITMAP
0C00
0C00
1A00
1A00
3100
3100
6080
6080
C040
C040
FFC0
ENDCHAR
STARTCHAR <unknown>
ENCODING 201
SWIDTH 42 0
DWIDTH 12 0
BBX 6 9 4 2
BITMAP
E0
60
60
60
60
60
60
64
38
ENDCHAR
STARTCHAR <unknown>
ENCODING 202
SWIDTH 42 0
DWIDTH 12 0
BBX 6 5 3 3
BITMAP
78
CC
CC
CC
78
ENDCHAR
STARTCHAR <unknown>
ENCODING 203
SWIDTH 42 0
DWIDTH 12 0
BBX 10 19 1 -5
BITMAP
3F00
3300
3300
3300
3300
3300
3300
3300
3300
3300
3300
3300
3300
3F00
4180
C240
4080
4240
E180
ENDCHAR
STARTCHAR <unknown>
ENCODING 204
SWIDTH 42 0
DWIDTH 12 0
BBX 10 14 1 0
BITMAP
FFC0
C0C0
C0C0
C0C0
C0C0
C0C0
C0C0
C0C0
C0C0
C0C0
C0C0
C0C0
C0C0
FFC0
ENDCHAR
STARTCHAR <unknown>
ENCODING 205
SWIDTH 42 0
DWIDTH 12 0
BBX 2 14 5 0
BITMAP
C0
C0
C0
C0
C0
C0
C0
C0
C0
C0
C0
C0
C0
C0
ENDCHAR
STARTCHAR <unknown>
ENCODING 206
SWIDTH 42 0
DWIDTH 12 0
BBX 9 10 1 0
BITMAP
FF80
FF80
0800
0800
0800
0800
0800
0800
0800
0800
ENDCHAR
STARTCHAR <unknown>
ENCODING 207
SWIDTH 42 0
DWIDTH 12 0
BBX 9 9 1 1
BITMAP
3E00
6300
C180
C180
C180
C180
C180
6300
3E00
ENDCHAR
STARTCHAR <unknown>
ENCODING 208
SWIDTH 42 0
DWIDTH 12 0
BBX 10 19 1 -5
BITMAP
3F00
3300
3300
3300
3300
3300
3300
3300
3300
3300
3300
3300
3300
3F00
4200
C280
43C0
4080
E080
ENDCHAR
STARTCHAR <unknown>
ENCODING 209
SWIDTH 42 0
DWIDTH 12 0
BBX 10 19 1 -5
BITMAP
3F00
3300
3300
3300
3300
3300
3300
3300
3300
3300
3300
3300
3300
3F00
43C0
C200
4380
4040
E380
ENDCHAR
STARTCHAR <unknown>
ENCODING 210
SWIDTH 42 0
DWIDTH 12 0
BBX 10 14 1 -4
BITMAP
1F00
2380
41C0
C0C0
C0C0
C0C0
C0C0
E080
F100
FE00
C000
C000
C000
C000
ENDCHAR
STARTCHAR <unknown>
ENCODING 211
SWIDTH 42 0
DWIDTH 12 0
BBX 5 15 4 0
BITMAP
F8
F8
C0
C0
C0
C0
C0
C0
C0
C0
C0
C0
C0
C0
C0
ENDCHAR
STARTCHAR <unknown>
ENCODING 212
SWIDTH 42 0
DWIDTH 12 0
BBX 10 19 1 -5
BITMAP
3F00
3300
3300
3300
3300
3300
3300
3300
3300
3300
3300
3300
3300
3F00
41C0
C200
4380
4240
E180
ENDCHAR
STARTCHAR <unknown>
ENCODING 213
SWIDTH 42 0
DWIDTH 12 0
BBX 8 15 1 -1
BITMAP
18
18
18
18
18
18
18
18
18
18
18
99
5A
3C
18
ENDCHAR
STARTCHAR <unknown>
ENCODING 214
SWIDTH 42 0
DWIDTH 12 0
BBX 8 10 2 2
BITMAP
C3
C3
C3
C3
C3
C3
C3
C3
66
3C
ENDCHAR
STARTCHAR <unknown>
ENCODING 215
SWIDTH 42 0
DWIDTH 12 0
BBX 10 9 1 0
BITMAP
2080
60C0
60C0
C0C0
C4C0
CCC0
CCC0
7F80
3300
ENDCHAR
STARTCHAR <unknown>
ENCODING 216
SWIDTH 42 0
DWIDTH 12 0
BBX 10 9 1 4
BITMAP
FF00
FF80
0180
00C0
00C0
00C0
0180
FF80
FF00
ENDCHAR
STARTCHAR <unknown>
ENCODING 217
SWIDTH 42 0
DWIDTH 12 0
BBX 8 15 1 0
BITMAP
18
3C
5A
99
18
18
18
18
18
18
18
18
18
18
18
ENDCHAR
STARTCHAR <unknown>
ENCODING 218
SWIDTH 42 0
DWIDTH 12 0
BBX 10 9 1 4
BITMAP
3FC0
7FC0
6000
C000
C000
C000
6000
7FC0
3FC0
ENDCHAR
STARTCHAR <unknown>
ENCODING 219
SWIDTH 42 0
DWIDTH 12 0
BBX 10 10 1 3
BITMAP
C000
C000
C000
C000
FFC0
FFC0
C000
C000
C000
C000
ENDCHAR
STARTCHAR <unknown>
ENCODING 220
SWIDTH 42 0
DWIDTH 12 0
BBX 10 15 1 0
BITMAP
C000
C000
6000
6000
3000
3000
1800
FFC0
FFC0
0600
0600
0300
0300
0180
0180
ENDCHAR
STARTCHAR <unknown>
ENCODING 221
SWIDTH 42 0
DWIDTH 12 0
BBX 10 11 1 3
BITMAP
00C0
00C0
00C0
00C0
00C0
FFC0
FFC0
00C0
00C0
00C0
00C0
ENDCHAR
STARTCHAR <unknown>
ENCODING 222
SWIDTH 42 0
DWIDTH 12 0
BBX 11 19 1 -5
BITMAP
3F00
3300
3300
3300
3300
3300
3300
3300
3300
3300
3300
3300
3300
3F00
41E0
C040
41E0
4080
E100
ENDCHAR
STARTCHAR <unknown>
ENCODING 223
SWIDTH 42 0
DWIDTH 12 0
BBX 10 10 1 3
BITMAP
0C00
0C00
0000
0000
FFC0
FFC0
0000
0000
0C00
0C00
ENDCHAR
STARTCHAR <unknown>
ENCODING 224
SWIDTH 42 0
DWIDTH 12 0
BBX 8 11 2 0
BITMAP
FF
FF
18
18
18
18
18
18
18
FF
FF
ENDCHAR
STARTCHAR <unknown>
ENCODING 225
SWIDTH 42 0
DWIDTH 12 0
BBX 9 10 1 1
BITMAP
3E00
6300
C180
8080
FF80
FF80
8080
C180
6300
3E00
ENDCHAR
STARTCHAR <unknown>
ENCODING 226
SWIDTH 42 0
DWIDTH 12 0
BBX 9 11 1 0
BITMAP
0800
0800
3E00
6B00
6B00
6B00
6B00
3E00
0800
FF80
FF80
ENDCHAR
STARTCHAR <unknown>
ENCODING 227
SWIDTH 42 0
DWIDTH 12 0
BBX 8 10 2 0
BITMAP
3C
66
C3
C3
E7
FF
C3
C3
C3
C3
ENDCHAR
STARTCHAR <unknown>
ENCODING 228
SWIDTH 42 0
DWIDTH 12 0
BBX 10 19 1 -5
BITMAP
3F00
3300
3300
3300
3300
3300
3300
3300
3300
3300
3300
3300
3300
3F00
4180
C240
4180
4240
E180
ENDCHAR
STARTCHAR <unknown>
ENCODING 229
SWIDTH 42 0
DWIDTH 12 0
BBX 9 12 2 0
BITMAP
1F00
6000
4000
C000
FC00
C000
C000
4000
3E00
0000
FF80
FF80
ENDCHAR
STARTCHAR <unknown>
ENCODING 230
SWIDTH 42 0
DWIDTH 12 0
BBX 10 15 1 0
BITMAP
3840
6EC0
C780
0000
FFC0
C040
C040
6080
6080
3100
3100
1A00
1A00
0C00
0C00
ENDCHAR
STARTCHAR <unknown>
ENCODING 231
SWIDTH 42 0
DWIDTH 12 0
BBX 10 15 1 0
BITMAP
0400
0400
0400
FFC0
C440
C440
6480
6480
3500
3500
1E00
1E00
0C00
0C00
0C00
ENDCHAR
STARTCHAR <unknown>
ENCODING 232
SWIDTH 42 0
DWIDTH 12 0
BBX 10 16 1 -1
BITMAP
0C00
0C00
0C00
0C00
1E00
1600
3500
3500
6480
6480
C440
C440
FFC0
0400
0400
0400
ENDCHAR
STARTCHAR <unknown>
ENCODING 233
SWIDTH 42 0
DWIDTH 12 0
BBX 10 12 2 -1
BITMAP
3800
1800
1800
1800
1800
1800
1800
1900
0E00
0000
FFC0
FFC0
ENDCHAR
STARTCHAR <unknown>
ENCODING 234
SWIDTH 42 0
DWIDTH 12 0
BBX 6 8 3 3
BITMAP
CC
CC
00
78
CC
CC
CC
78
ENDCHAR
STARTCHAR <unknown>
ENCODING 235
SWIDTH 42 0
DWIDTH 12 0
BBX 10 19 1 -5
BITMAP
3F00
3300
3300
3300
3300
3300
3300
3300
3300
3300
3300
3300
3300
3F00
4080
C140
4140
4080
E100
ENDCHAR
STARTCHAR <unknown>
ENCODING 236
SWIDTH 42 0
DWIDTH 12 0
BBX 10 14 1 0
BITMAP
FFC0
CCC0
CCC0
CCC0
CCC0
C0C0
C0C0
C0C0
C0C0
C0C0
C0C0
C0C0
C0C0
FFC0
ENDCHAR
STARTCHAR <unknown>
ENCODING 237
SWIDTH 42 0
DWIDTH 12 0
BBX 9 19 1 -5
BITMAP
3F00
3300
3300
3300
3300
3300
3300
3300
3300
3300
3300
3300
3300
3F00
6100
9280
1280
2280
F100
ENDCHAR
STARTCHAR <unknown>
ENCODING 238
SWIDTH 42 0
DWIDTH 12 0
BBX 9 11 1 0
BITMAP
FF80
FF80
0800
3E00
6B00
6B00
6B00
6B00
3E00
0800
0800
ENDCHAR
STARTCHAR <unknown>
ENCODING 239
SWIDTH 42 0
DWIDTH 12 0
BBX 9 12 1 1
BITMAP
6180
6180
0000
3E00
6300
C180
8080
8080
8080
C180
6300
3E00
ENDCHAR
STARTCHAR <unknown>
ENCODING 240
SWIDTH 42 0
DWIDTH 12 0
BBX 9 9 1 1
BITMAP
3E00
6B00
C980
AA80
9C80
9480
F780
6300
3E00
ENDCHAR
STARTCHAR <unknown>
ENCODING 241
SWIDTH 42 0
DWIDTH 12 0
BBX 0 0 12 15
BITMAP
ENDCHAR
STARTCHAR <unknown>
ENCODING 242
SWIDTH 42 0
DWIDTH 12 0
BBX 0 0 12 15
BITMAP
ENDCHAR
STARTCHAR <unknown>
ENCODING 243
SWIDTH 42 0
DWIDTH 12 0
BBX 0 0 12 15
BITMAP
ENDCHAR
STARTCHAR <unknown>
ENCODING 244
SWIDTH 42 0
DWIDTH 12 0
BBX 11 11 0 0
BITMAP
C000
6F00
3980
78C0
6C40
6640
6340
61C0
31C0
1F60
0020
ENDCHAR
STARTCHAR <unknown>
ENCODING 245
SWIDTH 42 0
DWIDTH 12 0
BBX 9 17 1 -5
BITMAP
FF80
FF80
FF80
0000
1800
3C00
3C00
1800
0000
1800
3C00
3C00
0C00
0C00
1800
3000
2000
ENDCHAR
STARTCHAR <unknown>
ENCODING 246
SWIDTH 42 0
DWIDTH 12 0
BBX 10 16 1 -4
BITMAP
FFC0
FFC0
FFC0
0000
0000
0C00
CCC0
EDC0
7F80
3F00
1E00
3F00
7F80
EDC0
CCC0
0C00
ENDCHAR
STARTCHAR <unknown>
ENCODING 247
SWIDTH 42 0
DWIDTH 12 0
BBX 9 15 1 -2
BITMAP
0800
0800
0800
3E00
6B00
C980
C980
C980
C980
C980
6B00
3E00
0800
0800
0800
ENDCHAR
STARTCHAR <unknown>
ENCODING 248
SWIDTH 42 0
DWIDTH 12 0
BBX 0 0 12 15
BITMAP
ENDCHAR
STARTCHAR <unknown>
ENCODING 249
SWIDTH 42 0
DWIDTH 12 0
BBX 0 0 12 15
BITMAP
ENDCHAR
STARTCHAR <unknown>
ENCODING 250
SWIDTH 42 0
DWIDTH 12 0
BBX 9 15 1 -2
BITMAP
0C00
0C00
0C00
3F00
6F80
4D80
CC00
CC00
CC00
CC00
EC80
6D80
3F00
0C00
0C00
ENDCHAR
STARTCHAR <unknown>
ENCODING 251
SWIDTH 42 0
DWIDTH 12 0
BBX 10 8 1 4
BITMAP
1000
2000
4000
FFC0
FFC0
4000
2000
1000
ENDCHAR
STARTCHAR <unknown>
ENCODING 252
SWIDTH 42 0
DWIDTH 12 0
BBX 10 14 1 -1
BITMAP
0C00
0C00
1A00
1A00
3100
3100
6080
6080
C040
C040
FFC0
0000
FFC0
FFC0
ENDCHAR
STARTCHAR <unknown>
ENCODING 253
SWIDTH 42 0
DWIDTH 12 0
BBX 10 8 1 4
BITMAP
0200
0100
0080
FFC0
FFC0
0080
0100
0200
ENDCHAR
STARTCHAR <unknown>
ENCODING 254
SWIDTH 42 0
DWIDTH 12 0
BBX 11 11 0 1
BITMAP
0400
0E00
1B00
3180
60C0
C060
60C0
3180
1B00
0E00
0400
ENDCHAR
STARTCHAR <unknown>
ENCODING 255
SWIDTH 42 0
DWIDTH 12 0
BBX 8 14 2 0
BITMAP
FF
FF
FF
FF
FF
FF
FF
FF
FF
FF
FF
FF
FF
FF
ENDCHAR
ENDFONT
